# xmcd
#
# Track frame offsets: 
#        150
#        15997
#        33869
#        58108
#        86143
#        106729
#        128734
#        152284
#        175689
#
# Disc length: 2576 seconds
#
# Revision: 0
# Processed by: cddbd v1.5.2PL0 Copyright (c) Steve Scherf et al.
# Submitted via: ExactAudioCopy v1.1
#
DISCID=5b0a0e09
DTITLE=Muddy Waters - Muddy Waters Woodstock Album
DYEAR=1975
DGENRE=Blues
TTITLE0=Why Are People Like That
TTITLE1=Going Down To Main Street
TTITLE2=Born With Nothing
TTITLE3=Caldonia
TTITLE4=Funny sounds
TTITLE5=Love, Deep As The Ocean
TTITLE6=Let The Good Times Roll
TTITLE7=Kansas City
TTITLE8=Fox Squirrel
EXTD=
EXTT0=
EXTT1=
EXTT2=
EXTT3=
EXTT4=
EXTT5=
EXTT6=
EXTT7=
EXTT8=
PLAYORDER=
